# xmcd
#
# Track frame offsets:
#	187
#	9677
#	29015
#	43967
#	61277
#	81222
#	102080
#	119535
#	137132
#	158715
#	174515
#	189055
#	205375
#	224570
#	242037
#
# Disc length: 3327 seconds
#
# Revision: 1
# Processed by: cddbd v1.5.1PL0 Copyright (c) Steve Scherf et al.
# Submitted via: CDex 1.50Beta5
#
DISCID=d70cfd0f
DTITLE=ティン・パン・アレー - ティン・パン・アレー ベスト15/ソングライター・ルネッサンス
DYEAR=1992
DGENRE=
TTITLE0=CARAMEL RAG
TTITLE1=CHOPPERS BOOGIE
TTITLE2=CHOO CHOO GATTA GOT’75
TTITLE3=ろっかばいまいべいびい
TTITLE4=はあどぼいるど町
TTITLE5=月にてらされて
TTITLE6=ポケットいっぱいの秘密
TTITLE7=明日あたりはきっと春
TTITLE8=SHE IS GONE
TTITLE9=ソバカスのある少女
TTITLE10=JACKSON
TTITLE11=YELLOW MAGIC CARNIVAL
TTITLE12=薔薇と野獣
TTITLE13=結婚しようよ
TTITLE14=BALLADE OF AYA
EXTD=
EXTT0=
EXTT1=
EXTT2=
EXTT3=
EXTT4=
EXTT5=
EXTT6=
EXTT7=
EXTT8=
EXTT9=
EXTT10=
EXTT11=
EXTT12=
EXTT13=
EXTT14=
PLAYORDER=
